<?xml version="1.0" encoding="UTF-8" standalone="no"?>
<svg
   version="1.1"
   id="svg2"
   viewBox="0 0 2496.7212 530.32675"
   height="14.967cm"
   width="70.462997cm"
   inkscape:version="1.2.2 (b0a8486541, 2022-12-01)"
   sodipodi:docname="logo_paths.svg"
   inkscape:export-filename="logo.png"
   inkscape:export-xdpi="96"
   inkscape:export-ydpi="96"
   xmlns:inkscape="http://www.inkscape.org/namespaces/inkscape"
   xmlns:sodipodi="http://sodipodi.sourceforge.net/DTD/sodipodi-0.dtd"
   xmlns:xlink="http://www.w3.org/1999/xlink"
   xmlns="http://www.w3.org/2000/svg"
   xmlns:svg="http://www.w3.org/2000/svg"
   xmlns:rdf="http://www.w3.org/1999/02/22-rdf-syntax-ns#"
   xmlns:cc="http://creativecommons.org/ns#"
   xmlns:dc="http://purl.org/dc/elements/1.1/">
  <sodipodi:namedview
     pagecolor="#ffffff"
     bordercolor="#666666"
     borderopacity="1"
     objecttolerance="10"
     gridtolerance="10"
     guidetolerance="10"
     inkscape:pageopacity="0"
     inkscape:pageshadow="2"
     inkscape:window-width="1920"
     inkscape:window-height="1043"
     id="namedview40"
     showgrid="false"
     fit-margin-top="1.5"
     fit-margin-left="1.5"
     fit-margin-right="1.5"
     fit-margin-bottom="1.5"
     inkscape:zoom="0.36388287"
     inkscape:cx="1739.5708"
     inkscape:cy="416.34276"
     inkscape:window-x="1920"
     inkscape:window-y="0"
     inkscape:window-maximized="1"
     inkscape:current-layer="g71262"
     inkscape:pagecheckerboard="0"
     inkscape:document-units="cm"
     inkscape:showpageshadow="0"
     inkscape:deskcolor="#d1d1d1" />
  <defs
     id="defs4">
    <linearGradient
       inkscape:collect="always"
       id="linearGradient60818">
      <stop
         style="stop-color:#ffcc00;stop-opacity:1;"
         offset="0"
         id="stop60814" />
      <stop
         style="stop-color:#ffcc00;stop-opacity:0;"
         offset="1"
         id="stop60816" />
    </linearGradient>
    <linearGradient
       inkscape:collect="always"
       id="linearGradient57616">
      <stop
         style="stop-color:#ce5027;stop-opacity:1;"
         offset="0"
         id="stop57612" />
      <stop
         style="stop-color:#ce5027;stop-opacity:0;"
         offset="1"
         id="stop57614" />
    </linearGradient>
    <linearGradient
       inkscape:collect="always"
       id="linearGradient55606">
      <stop
         style="stop-color:#004082;stop-opacity:1;"
         offset="0"
         id="stop55602" />
      <stop
         style="stop-color:#004082;stop-opacity:0;"
         offset="1"
         id="stop55604" />
    </linearGradient>
    <rect
       x="222.60136"
       y="77.493637"
       width="3497.1028"
       height="684.68878"
       id="rect3341" />
    <linearGradient
       id="linearGradient5816"
       inkscape:swatch="solid">
      <stop
         id="stop5818"
         offset="0"
         style="stop-color:#0066cd;stop-opacity:1;" />
    </linearGradient>
    <linearGradient
       id="linearGradient5810"
       inkscape:swatch="solid">
      <stop
         id="stop5812"
         offset="0"
         style="stop-color:#0066cd;stop-opacity:1;" />
    </linearGradient>
    <linearGradient
       id="linearGradient5800-2"
       inkscape:swatch="solid">
      <stop
         style="stop-color:#004082;stop-opacity:0;"
         offset="0"
         id="stop5808" />
    </linearGradient>
    <linearGradient
       id="linearGradient5800">
      <stop
         id="stop5802"
         offset="0"
         style="stop-color:#004082;stop-opacity:0;" />
    </linearGradient>
    <linearGradient
       id="azul-8"
       inkscape:swatch="solid">
      <stop
         id="stop5796"
         offset="0"
         style="stop-color:#004082;stop-opacity:0;" />
    </linearGradient>
    <linearGradient
       id="linearGradient5788"
       inkscape:swatch="solid">
      <stop
         id="stop5790"
         offset="0"
         style="stop-color:#0066cd;stop-opacity:0;" />
    </linearGradient>
    <radialGradient
       inkscape:collect="always"
       xlink:href="#linearGradient55606"
       id="radialGradient55610"
       cx="70.203407"
       cy="751.98877"
       fx="70.203407"
       fy="751.98877"
       r="52.525475"
       gradientUnits="userSpaceOnUse"
       gradientTransform="matrix(1.4001391,0,0,1.4001391,901.3966,-278.21167)" />
    <radialGradient
       inkscape:collect="always"
       xlink:href="#linearGradient57616"
       id="radialGradient57620"
       cx="1150.0629"
       cy="452.91687"
       fx="1150.0629"
       fy="452.91687"
       r="53.149605"
       gradientUnits="userSpaceOnUse"
       gradientTransform="matrix(1.4024753,0,0,1.4024753,-366.1075,-59.39864)" />
    <radialGradient
       inkscape:collect="always"
       xlink:href="#linearGradient60818"
       id="radialGradient60820"
       cx="2447.1047"
       cy="440.59293"
       fx="2447.1047"
       fy="440.59293"
       r="52.525475"
       gradientUnits="userSpaceOnUse"
       gradientTransform="matrix(1.4028729,0,0,1.4028729,-1594.147,186.19692)" />
  </defs>
  <metadata
     id="metadata7">
    <rdf:RDF>
      <cc:Work
         rdf:about="">
        <dc:format>image/svg+xml</dc:format>
        <dc:type
           rdf:resource="http://purl.org/dc/dcmitype/StillImage" />
      </cc:Work>
    </rdf:RDF>
  </metadata>
  <g
     transform="translate(-113.87722,-381.27618)"
     id="layer1">
    <g
       id="g70941">
      <g
         id="g71262">
        <circle
           r="73.66568"
           cy="575.80609"
           cx="1246.8274"
           id="path4164-6-7-5-3-0"
           style="fill:url(#radialGradient57620);fill-opacity:1;stroke:none;stroke-width:1.73929;stroke-linejoin:miter;stroke-miterlimit:4;stroke-dasharray:none;stroke-opacity:1" />
        <circle
           r="73.686562"
           cy="804.29272"
           cx="1838.8301"
           id="path4164-6-7-5-3-7"
           style="fill:url(#radialGradient60820);fill-opacity:1;stroke:none;stroke-width:1.75115;stroke-linejoin:miter;stroke-miterlimit:4;stroke-dasharray:none;stroke-opacity:1" />
        <ellipse
           cy="774.67719"
           cx="999.69128"
           id="path4164-6-7-5-5-92"
           style="fill:url(#radialGradient55610);fill-opacity:1;stroke:none;stroke-width:1.74774;stroke-linejoin:miter;stroke-miterlimit:4;stroke-dasharray:none;stroke-opacity:1"
           rx="73.523842"
           ry="73.542969" />
        <g
           aria-label="PocketMT"
           transform="matrix(0.93749996,0,0,0.93749996,-67.92985,290.80905)"
           id="text3339"
           style="font-size:529.134px;line-height:125%;letter-spacing:0px;word-spacing:0px;white-space:pre;shape-inside:url(#rect3341);display:inline;stroke-width:1px">
          <path
             d="m 297.73859,561.58568 q -10.05355,0 -16.93229,-6.87874 -6.87874,-6.87874 -6.87874,-16.93229 V 213.94466 q 0,-10.05354 6.87874,-16.93229 6.87874,-7.40787 16.93229,-7.40787 h 120.64254 q 40.21418,0 67.20002,10.58268 27.51496,10.05354 43.38898,27.51496 16.40316,16.93229 23.2819,37.56852 7.40787,20.63622 7.40787,41.80158 0,21.16536 -7.40787,41.80158 -6.87874,20.63623 -23.2819,38.09765 -15.87402,16.93229 -43.38898,27.51497 -26.98584,10.05354 -67.20002,10.05354 h -96.30238 v 113.23467 q 0,10.05355 -7.40788,16.93229 -6.87874,6.87874 -16.93228,6.87874 z m 24.34016,-182.55122 h 91.54018 q 39.68504,0 60.8504,-10.58268 21.16536,-11.11181 29.10237,-27.51497 7.93701,-16.93228 7.93701,-33.86457 0,-17.46142 -7.93701,-33.86457 -7.93701,-16.40316 -29.10237,-26.98584 -21.16536,-11.11181 -60.8504,-11.11181 h -91.54018 z"
             style="font-family:'Varela Round';-inkscape-font-specification:'Varela Round'"
             id="path343" />
          <path
             d="m 731.62894,564.23135 q -40.74331,0 -71.43308,-17.46142 -30.68977,-17.99056 -47.62206,-49.20946 -16.40315,-31.74804 -16.40315,-73.54962 0,-41.80159 16.40315,-73.02049 16.93229,-31.74804 47.62206,-49.20946 30.68977,-17.99055 71.43308,-17.99055 40.74332,0 70.90396,17.99055 30.68977,17.46142 47.62205,49.20946 16.93229,31.2189 16.93229,73.02049 0,41.80158 -16.93229,73.54962 -16.93228,31.2189 -47.62205,49.20946 -30.16064,17.46142 -70.90396,17.46142 z m 0,-43.91812 q 20.1071,0 40.21419,-9.52441 20.10709,-9.52441 33.33544,-30.68977 13.75748,-21.69449 13.75748,-56.61734 0,-34.92284 -13.75748,-56.0882 -13.22835,-21.16536 -33.33544,-30.16063 -20.10709,-9.52442 -40.21419,-9.52442 -20.10709,0 -40.74331,9.52442 -20.10709,8.99527 -33.33544,30.16063 -13.22835,21.16536 -13.22835,56.0882 0,34.92285 13.22835,56.61734 13.22835,21.16536 33.33544,30.68977 20.63622,9.52441 40.74331,9.52441 z"
             style="font-family:'Varela Round';-inkscape-font-specification:'Varela Round'"
             id="path345" />
          <path
             d="m 1059.1628,564.23135 q -37.5685,0 -69.84569,-16.40315 -32.27717,-16.93229 -51.85513,-48.15119 -19.57795,-31.74804 -19.57795,-75.66616 0,-44.44726 19.57795,-75.66616 19.57796,-31.2189 51.85513,-47.62206 32.27719,-16.93228 69.84569,-16.93228 31.2189,0 51.8551,8.46614 21.1654,7.93701 34.3937,16.93229 10.5827,6.87874 10.5827,18.51968 0,7.40788 -5.8205,14.28662 -5.8204,6.87874 -14.2866,6.87874 -5.8205,0 -11.6409,-3.1748 -13.7575,-7.40788 -26.9859,-12.17008 -13.2283,-4.76221 -33.8645,-4.76221 -46.0347,0 -71.96225,26.4567 -25.39843,26.4567 -25.39843,68.78742 0,42.33072 25.39843,68.78741 25.92755,26.4567 71.96225,26.4567 20.6362,0 33.8645,-4.7622 13.2284,-5.29134 26.9859,-12.17008 5.8204,-3.17481 11.6409,-3.17481 8.4662,0 14.2866,6.87874 5.8205,6.87875 5.8205,14.28662 0,11.64095 -10.5827,18.51969 -13.2283,8.46614 -34.3937,16.93229 -20.6362,8.46614 -51.8551,8.46614 z"
             style="font-family:'Varela Round';-inkscape-font-specification:'Varela Round'"
             id="path347" />
          <path
             d="m 1240.1271,561.58568 q -10.0536,0 -16.9323,-6.87874 -6.8788,-6.87874 -6.8788,-16.93229 V 194.3667 q 0,-10.05354 6.8788,-16.93228 6.8787,-7.40788 16.9323,-7.40788 10.0535,0 16.9323,7.40788 7.4078,6.87874 7.4078,16.93228 v 216.4158 l 125.9339,-116.40948 q 3.1748,-2.64567 6.8788,-4.7622 4.233,-2.11654 8.9952,-2.11654 13.7575,0 18.5197,7.93701 4.7622,7.40788 4.7622,15.34489 0,3.1748 -1.5874,7.93701 -1.5874,4.23307 -7.4078,10.05354 l -76.1953,68.25829 95.7732,126.99215 q 5.2914,6.87874 5.2914,14.28662 0,10.58268 -6.8788,16.93228 -6.8787,6.34961 -17.4614,6.34961 -11.1118,0 -19.578,-10.05354 l -91.011,-123.81735 -46.0347,41.80158 v 68.25828 q 0,10.05355 -7.4078,16.93229 -6.8788,6.87874 -16.9323,6.87874 z"
             style="font-family:'Varela Round';-inkscape-font-specification:'Varela Round'"
             id="path349" />
          <path
             d="m 1620.574,564.23135 q -64.5543,0 -101.0646,-36.51024 -35.9811,-37.03938 -35.9811,-103.71026 0,-35.98111 13.2284,-67.72915 13.2283,-32.27717 41.2724,-52.38426 28.0441,-20.10709 71.9622,-20.10709 40.7433,0 68.7874,19.04882 28.0441,18.51969 42.3308,48.68032 14.8157,30.16064 14.8157,65.61262 0,10.05354 -6.8787,16.93228 -6.3496,6.87874 -17.4614,6.87874 h -179.3765 q 4.2331,35.45198 26.9859,57.14647 22.7527,21.16536 65.6126,21.16536 23.811,0 40.2142,-4.23307 16.4031,-4.7622 31.2189,-12.17008 4.233,-2.11654 9.5244,-2.11654 8.4661,0 14.8157,5.82048 6.3496,5.82047 6.3496,14.81575 0,6.34961 -4.233,11.64095 -3.704,4.7622 -9.5244,7.93701 -17.4615,10.05354 -38.0977,16.93228 -20.1071,6.34961 -54.5008,6.34961 z m -88.3654,-162.44413 h 156.0946 q -1.5874,-27.51497 -14.2867,-44.44725 -12.17,-16.93229 -29.6315,-24.8693 -17.4614,-7.93701 -34.3937,-7.93701 -16.9323,0 -34.3937,7.93701 -17.4614,7.93701 -29.6315,24.8693 -12.1701,16.93228 -13.7575,44.44725 z"
             style="font-family:'Varela Round';-inkscape-font-specification:'Varela Round'"
             id="path351" />
          <path
             d="m 1892.5489,564.23135 q -9.5244,0 -22.7527,-2.11654 -12.6993,-1.5874 -25.3985,-7.93701 -12.1701,-6.87874 -20.6362,-21.16535 -8.4661,-14.28662 -8.4661,-38.62678 V 330.35413 h -37.5686 q -10.0535,0 -10.0535,-10.05354 0,-5.29134 4.7622,-8.99528 l 71.9622,-70.37482 q 1.0583,-1.05826 3.1748,-2.64567 2.6457,-2.11653 5.8205,-2.11653 4.2331,0 6.8787,3.1748 3.1748,3.17481 3.1748,7.40788 v 42.33071 h 59.7922 q 8.9953,0 14.8157,5.82048 5.8205,5.82047 5.8205,14.81575 0,8.46614 -5.8205,14.81575 -5.8204,5.82047 -14.8157,5.82047 h -59.7922 v 159.79846 q 0,15.34489 5.8205,22.22363 5.8205,6.87874 13.7575,8.46614 8.4661,1.05827 14.8158,1.05827 12.6992,0 18.5196,-2.11653 6.3497,-2.64567 13.2284,-2.64567 7.4079,0 13.2283,5.29134 5.8205,5.29134 5.8205,13.75748 0,12.17008 -12.1701,18.51969 -9.5244,4.23307 -20.6362,6.87874 -10.5827,2.64567 -23.2819,2.64567 z"
             style="font-family:'Varela Round';-inkscape-font-specification:'Varela Round'"
             id="path353" />
          <path
             d="m 2034.8859,561.58568 q -10.0535,0 -16.9323,-6.87874 -6.8787,-6.87874 -6.8787,-16.93229 V 221.88167 q 0,-14.28662 10.0535,-24.34016 10.0536,-10.58268 24.3402,-10.58268 h 17.4614 q 10.5827,0 19.578,6.34961 8.9953,6.3496 12.6992,15.87402 l 120.1134,299.48982 120.1134,-299.48982 q 4.2331,-9.52442 12.6992,-15.87402 8.9953,-6.34961 19.578,-6.34961 h 17.4614 q 14.2866,0 24.3402,10.58268 10.0535,10.05354 10.0535,24.34016 v 315.89298 q 0,10.05355 -6.8787,16.93229 -6.8788,6.87874 -16.9323,6.87874 -10.0536,0 -17.4614,-6.87874 -6.8788,-6.87874 -6.8788,-16.93229 V 237.22656 l -122.2299,302.13549 q -4.2331,10.05355 -13.2284,16.40316 -8.9952,5.82047 -20.6362,5.82047 -11.6409,0 -20.6362,-5.82047 -8.9953,-6.34961 -13.2284,-16.40316 L 2059.2261,237.22656 v 300.54809 q 0,10.05355 -7.4079,16.93229 -6.8787,6.87874 -16.9323,6.87874 z"
             style="font-family:'Varela Round';-inkscape-font-specification:'Varela Round'"
             id="path355" />
          <path
             d="m 2631.7488,561.58568 q -10.0535,0 -16.9323,-6.87874 -6.8787,-6.87874 -6.8787,-16.93229 V 234.58089 h -107.9433 q -9.5245,0 -15.8741,-6.34961 -6.3496,-6.34961 -6.3496,-15.87402 0,-9.52441 6.3496,-15.87402 6.3496,-6.87874 15.8741,-6.87874 h 263.5087 q 9.5244,0 15.874,6.87874 6.8787,6.34961 6.8787,15.87402 0,9.52441 -6.8787,15.87402 -6.3496,6.34961 -15.874,6.34961 H 2656.089 v 303.19376 q 0,10.05355 -7.4079,16.93229 -6.8787,6.87874 -16.9323,6.87874 z"
             style="font-family:'Varela Round';-inkscape-font-specification:'Varela Round'"
             id="path357" />
        </g>
      </g>
    </g>
  </g>
</svg>
